<svg id="svg" xmlns="http://www.w3.org/2000/svg" xmlns:xlink="http://www.w3.org/1999/xlink" width="400" height="400" viewBox="0, 0, 400,400"><g id="svgg"><path id="path0" d="M139.696 50.067 C 137.879 51.119,134.085 55.916,131.265 60.729 C 126.425 68.987,125.546 69.535,115.588 70.492 C 102.154 71.782,101.092 71.307,93.834 60.759 C 86.553 50.177,82.006 49.655,66.000 57.564 C 53.949 63.519,53.740 64.126,57.063 83.470 C 58.438 91.468,58.074 92.398,50.532 100.168 L 42.546 108.397 31.619 106.128 C 17.267 103.149,15.241 104.207,10.229 117.304 C 3.446 135.029,4.251 139.046,15.750 144.874 C 26.670 150.407,28.000 152.595,28.000 165.021 C 28.000 174.401,26.150 177.109,15.053 183.967 C 6.344 189.350,6.056 194.553,13.616 210.000 C 19.502 222.027,22.359 223.010,40.291 219.187 C 46.919 217.775,48.342 218.319,55.928 225.173 L 64.274 232.713 62.926 247.101 L 61.578 261.489 75.732 266.897 C 92.864 273.444,95.450 272.798,102.507 260.209 C 111.432 244.288,129.880 244.626,139.935 260.895 C 145.882 270.517,149.383 270.936,164.928 263.887 L 178.531 257.720 177.430 247.360 C 176.825 241.662,175.723 235.460,174.981 233.578 C 174.034 231.177,176.224 227.413,182.322 220.959 L 191.012 211.762 200.945 213.988 C 216.647 217.507,219.109 216.052,224.200 200.245 C 229.433 183.995,228.878 181.854,217.596 174.786 C 201.000 164.391,200.324 148.453,216.000 137.191 C 227.738 128.758,228.186 125.933,220.307 110.000 C 214.345 97.943,213.000 97.497,193.000 100.946 C 185.523 102.236,184.491 101.801,177.211 94.283 L 169.423 86.240 171.467 75.901 C 174.358 61.280,173.145 58.710,161.283 54.318 C 145.410 48.440,143.243 48.014,139.696 50.067 M128.449 116.091 C 147.030 121.252,161.877 140.296,161.900 159.000 C 161.950 199.772,115.267 220.053,85.317 192.272 C 51.636 161.030,84.060 103.763,128.449 116.091 M345.084 185.838 C 341.488 192.792,335.448 193.931,329.709 188.736 C 322.798 182.482,311.401 193.705,315.508 202.720 C 318.219 208.669,314.301 214.000,307.217 214.000 C 301.795 214.000,301.286 214.663,299.108 224.583 C 298.042 229.437,298.648 230.434,303.741 232.209 C 310.594 234.599,313.144 241.421,308.924 246.084 C 302.278 253.428,310.511 266.232,319.304 262.225 C 326.019 259.166,334.000 263.830,334.000 270.813 C 334.000 279.059,348.836 280.909,350.843 272.913 C 352.692 265.547,359.853 263.376,365.426 268.493 C 372.927 275.382,384.955 265.259,380.084 256.156 C 376.756 249.939,380.659 244.000,388.070 244.000 C 392.982 244.000,394.052 243.142,394.300 239.000 C 394.465 236.250,394.690 232.887,394.800 231.527 C 394.910 230.167,392.525 227.868,389.500 226.418 C 383.316 223.454,382.044 216.113,387.000 212.000 C 393.851 206.314,385.061 194.106,376.396 197.274 C 368.855 200.030,362.000 195.505,362.000 187.770 C 362.000 183.415,361.059 182.000,358.164 182.000 C 356.054 182.000,352.964 181.477,351.299 180.838 C 349.286 180.065,347.202 181.742,345.084 185.838 M356.111 214.059 C 371.556 222.325,364.967 248.000,347.401 248.000 C 339.410 248.000,330.000 238.266,330.000 230.000 C 330.000 217.504,345.204 208.222,356.111 214.059 M233.035 216.500 C 232.574 217.875,231.927 221.242,231.598 223.981 C 230.671 231.706,220.956 235.622,213.432 231.304 C 199.296 223.191,184.703 236.793,193.705 249.691 C 198.707 256.858,194.841 267.300,186.511 269.126 C 176.150 271.397,176.000 271.578,176.000 281.867 C 176.000 292.379,178.979 296.000,187.626 296.000 C 194.096 296.000,197.562 307.148,193.366 314.460 C 188.601 322.761,189.141 326.429,196.111 333.106 L 202.222 338.961 209.866 334.562 C 220.773 328.285,229.558 331.531,231.309 342.484 C 233.471 356.002,253.370 356.464,257.105 343.082 C 260.157 332.147,269.658 327.867,277.386 333.947 C 284.312 339.395,286.142 339.108,293.608 331.405 C 301.132 323.642,301.188 323.286,296.025 316.035 C 290.727 308.595,293.705 298.539,301.700 296.869 C 311.086 294.908,312.978 292.889,313.622 284.149 C 314.365 274.072,311.532 270.000,303.782 270.000 C 294.980 270.000,290.317 257.981,296.014 249.980 C 301.619 242.109,301.035 238.993,292.771 232.689 L 285.541 227.175 278.213 231.393 C 268.796 236.812,258.000 233.537,258.000 225.260 C 258.000 215.465,256.273 214.000,244.723 214.000 C 237.825 214.000,233.569 214.910,233.035 216.500 M256.188 259.097 C 274.755 268.699,274.295 297.710,255.434 306.660 C 237.644 315.102,218.027 302.911,218.007 283.401 C 217.987 262.826,238.342 249.869,256.188 259.097 " stroke="none" fill="#000000" fill-rule="evenodd"></path></g></svg>